# xmcd CD database file
#
# Track frame offsets:
#	150
#	20263
#	38546
#	62159
#	85063
#	105109
#	126517
#	149757
#	174687
#
# Disc length: 2579 seconds
#
# Revision: 6
# Processed by: cddbd v1.5.1PL2 Copyright (c) Steve Scherf et al.
# Submitted via: CDex 1.51
#
DISCID=730a1109
DTITLE=TM NETWORK - RAINBOW RAINBOW
DYEAR=1984
DGENRE=Rock
TTITLE0=カリビアーナ・ハイ
TTITLE1=クロコダイル・ラップ （Get away）
TTITLE2=1/2の助走 （Just for you and me now）
TTITLE3=1974 （16光年の訪問者）
TTITLE4=クリストファー
TTITLE5=イパネマ '84
TTITLE6=金曜日のライオン （Take it to the lucky）
TTITLE7=RAINBOW RAINBOW （陽気なアインシュタインと80年代モナリザの一夜）
TTITLE8=パノラマジック （アストロノーツの悲劇）
EXTD=YEAR: 1984
EXTT0=
EXTT1=
EXTT2=
EXTT3=
EXTT4=
EXTT5=
EXTT6=
EXTT7=
EXTT8=
PLAYORDER=
